#!OML:ASF F:\VICON\USERDATA\INSTALL\rory3\rory3.ASF
:FULLY-SPECIFIED
:DEGREES
766
root 1.75164 16.9891 -3.90323 39.7567 -55.3855 -17.9354
lowerback -16.955 2.17666 0.795858
upperback -9.24443 2.31437 3.61514
thorax -0.495107 1.06696 3.73288
lowerneck -12.6119 -2.29035 -2.01195
upperneck 26.4344 -5.21192 7.34125
head 10.8443 -1.86242 2.28407
rclavicle -9.80257e-015 -6.15239e-014
rhumerus -39.6982 -34.2633 -51.374
rradius 34.847
rwrist -14.4452
rhand 1.25088 12.6716
rfingers 7.12502
rthumb 26.7879 -15.4514
lclavicle -9.80257e-015 -6.15239e-014
lhumerus -37.1005 22.4758 56.7414
lradius 53.4823
lwrist 4.78451
lhand -3.64774 17.3661
lfingers 7.12502
lthumb 22.0922 46.1241
rfemur 161.043 -190.319 -155.007
rtibia 38.5748
rfoot 5.83554 -31.3162
rtoes 19.8069
lfemur -43.7186 1.42441 -20.6785
ltibia 37.2742
lfoot -75.1375 25.3551
ltoes 40.4271
767
root 1.72074 16.9783 -3.87842 39.928 -55.4652 -18.4225
lowerback -16.8078 2.19998 0.881532
upperback -9.13833 2.33644 3.72895
thorax -0.460998 1.07856 3.80452
lowerneck -12.4533 -2.34425 -2.08822
upperneck 26.4239 -5.29104 7.4
head 10.8171 -1.90501 2.30897
rclavicle 1.26262e-013 1.66979e-014
rhumerus -39.6431 -34.014 -51.3691
rradius 35.0595
rwrist -14.5549
rhand 1.174 12.5693
rfingers 7.12502
rthumb 26.7144 -15.565
lclavicle 1.26262e-013 1.66979e-014
lhumerus -36.5512 21.679 56.8998
lradius 54.1628
lwrist 5.02967
lhand -4.80656 16.6722
lfingers 7.12502
lthumb 20.9793 45.5576
rfemur 161.308 -190.369 -155.001
rtibia 38.7109
rfoot 3.64253 -28.7917
rtoes 24.5229
lfemur -43.0054 -1.98817 -19.0002
ltibia 37.1814
lfoot -79.4728 23.8577
ltoes 41.5676
768
root 1.69691 16.9657 -3.85776 39.4809 -55.5299 -18.1008
lowerback -16.549 2.25838 0.675315
upperback -9.19557 2.45719 3.68229
thorax -0.671136 1.14926 3.87881
lowerneck -12.3997 -2.5135 -2.43348
upperneck 26.32 -5.51865 7.67676
head 10.7993 -2.01407 2.43779
rclavicle 4.34096e-014 5.13858e-014
rhumerus -40.0802 -33.6325 -50.9476
rradius 35.319
rwrist -14.831
rhand 0.808758 12.4704
rfingers 7.12502
rthumb 26.3648 -15.7167
lclavicle 4.34096e-014 5.13858e-014
lhumerus -36.0499 20.6158 57.3085
lradius 54.9507
lwrist 5.15849
lhand -5.60911 16.6215
lfingers 7.12502
lthumb 20.2081 45.5903
rfemur 161.541 -190.869 -155.428
rtibia 38.893
rfoot 0.347566 -28.2436
rtoes 32.3943
lfemur -42.5299 -3.87055 -18.5357
ltibia 37.0523
lfoot -81.5998 23.2819
ltoes 41.7486
769
root 1.67899 16.9676 -3.85894 39.213 -55.3937 -17.5477
lowerback -16.5389 2.01113 0.213511
upperback -9.07549 2.20714 3.50346
thorax -0.541761 1.03902 3.91346
lowerneck -13.013 -2.47628 -1.73943
upperneck 26.4382 -5.60054 7.52218
head 10.9498 -1.98145 2.2471
rclavicle 5.79302e-014 -7.15625e-015
rhumerus -39.8108 -33.7943 -51.4921
rradius 35.4257
rwrist -14.6667
rhand 0.604414 12.734
rfingers 7.12502
rthumb 26.1692 -15.4823
lclavicle 5.79302e-014 -7.15625e-015
lhumerus -35.0514 20.1476 57.1255
lradius 55.6826
lwrist 5.33722
lhand -5.94607 17.1587
lfingers 7.12502
lthumb 19.8842 46.1615
rfemur 161.297 -191.348 -155.837
rtibia 39.1003
rfoot -1.7511 -28.2433
rtoes 36.6778
lfemur -42.6606 -2.63001 -19.273
ltibia 36.9093
lfoot -79.9017 23.325
ltoes 41.5566
770
root 1.65965 16.9715 -3.85121 38.9404 -55.4025 -17.1622
lowerback -16.3033 1.95953 -0.357284
upperback -9.11454 2.2299 3.49545
thorax -0.73258 1.07663 4.2225
lowerneck -13.0855 -2.57088 -1.58062
upperneck 26.3792 -5.73281 7.40149
head 10.9417 -2.03806 2.15637
rclavicle 6.90808e-014 3.77691e-015
rhumerus -40.0675 -33.6628 -51.1616
rradius 35.6052
rwrist -14.5731
rhand 0.491868 12.8335
rfingers 7.12502
rthumb 26.0614 -15.3988
lclavicle 6.90808e-014 3.77691e-015
lhumerus -34.3453 19.4376 57.3886
lradius 56.3516
lwrist 5.58103
lhand -6.16805 17.301
lfingers 7.12502
lthumb 19.6708 46.3258
rfemur 161.232 -191.618 -156.301
rtibia 39.3161
rfoot -2.52222 -27.5411
rtoes 39.3938
lfemur -42.6101 -1.94961 -19.7769
ltibia 36.798
lfoot -79.0277 23.5344
ltoes 41.6714
771
root 1.63622 16.9662 -3.84032 38.856 -55.444 -17.1314
lowerback -15.994 1.93147 -0.746286
upperback -9.17668 2.25331 3.57804
thorax -0.984621 1.11079 4.52172
lowerneck -12.8846 -2.60186 -1.62993
upperneck 26.2901 -5.78119 7.48564
head 10.8752 -2.06283 2.18958
rclavicle 2.53295e-014 2.76311e-014
rhumerus -40.4779 -33.6546 -50.7225
rradius 35.718
rwrist -13.9252
rhand 0.39676 13.0536
rfingers 7.12502
rthumb 25.9703 -15.192
lclavicle 2.53295e-014 2.76311e-014
lhumerus -33.972 18.846 57.5479
lradius 57.0067
lwrist 5.73896
lhand -6.66729 17.214
lfingers 7.12502
lthumb 19.1908 46.2871
rfemur 161.243 -191.538 -156.44
rtibia 39.4569
rfoot 0.655547 -27.2448
rtoes 35.3329
lfemur -42.4728 -1.19758 -20.105
ltibia 36.7678
lfoot -78.1943 23.7864
ltoes 41.7453
772
root 1.60674 16.9564 -3.83018 38.9462 -55.5361 -17.153
lowerback -15.9696 1.81914 -1.08085
upperback -9.14907 2.15025 3.63024
thorax -0.976808 1.07387 4.75239
lowerneck -12.4559 -2.56648 -1.70606
upperneck 25.874 -5.75358 7.77968
head 10.6459 -2.04473 2.31085
rclavicle 2.41492e-014 3.12092e-014
rhumerus -40.4922 -33.418 -50.8727
rradius 35.7372
rwrist -13.382
rhand 0.0684507 13.2581
rfingers 7.12502
rthumb 25.6559 -15.0332
lclavicle 2.41492e-014 3.12092e-014
lhumerus -33.5877 18.4652 57.5201
lradius 57.4564
lwrist 5.81812
lhand -6.89732 17.9755
lfingers 7.12502
lthumb 18.9696 47.0705
rfemur 161.091 -191.167 -156.515
rtibia 39.5279
rfoot 7.2281 -26.6873
rtoes 18.1603
lfemur -42.5267 -0.300597 -20.4587
ltibia 36.8332
lfoot -77.2035 24.1228
ltoes 41.6091
773
root 1.58538 16.9429 -3.79895 38.4382 -55.213 -16.6269
lowerback -15.9013 1.58957 -1.15234
upperback -9.06894 1.86173 3.62271
thorax -0.902149 0.930871 4.74207
lowerneck -13.2849 -2.62029 -1.32496
upperneck 26.2759 -5.88947 7.50007
head 10.9495 -2.06987 2.12326
rclavicle 3.31691e-014 -6.59965e-014
rhumerus -40.3971 -32.7524 -51.1874
rradius 35.7893
rwrist -13.2846
rhand -0.378846 13.3123
rfingers 7.12502
rthumb 25.2275 -15.0401
lclavicle 3.31691e-014 -6.59965e-014
lhumerus -33.2252 18.1492 57.523
lradius 57.6916
lwrist 5.79322
lhand -6.54471 18.9902
lfingers 7.12502
lthumb 19.3087 48.0516
rfemur 161.302 -190.567 -156.767
rtibia 39.5559
rfoot 10.0273 -25.8573
rtoes 9.56062
lfemur -42.3813 -1.20613 -20.3966
ltibia 36.9285
lfoot -77.7673 23.8548
ltoes 41.7368
774
root 1.55665 16.9428 -3.79221 38.5952 -55.1428 -16.4487
lowerback -16.029 1.47732 -1.55938
upperback -9.16967 1.76298 3.68648
thorax -0.953826 0.899251 5.03149
lowerneck -12.6974 -2.46268 -1.16263
upperneck 25.7064 -5.64189 7.51652
head 10.603 -1.96608 2.13272
rclavicle -2.64648e-014 -5.36719e-015
rhumerus -40.6961 -32.4473 -51.072
rradius 35.9277
rwrist -13.2764
rhand -0.231765 13.3715
rfingers 7.12502
rthumb 25.3684 -14.961
lclavicle -2.64648e-014 -5.36719e-015
lhumerus -32.8481 17.6765 57.6703
lradius 57.8712
lwrist 5.79627
lhand -6.89018 19.0052
lfingers 7.12502
lthumb 18.9764 48.0995
rfemur 161.075 -190.675 -157.019
rtibia 39.613
rfoot 9.33211 -25.5288
rtoes 13.1301
lfemur -42.6824 -1.46099 -20.346
ltibia 37.036
lfoot -77.9285 24.0884
ltoes 41.5175
775
root 1.53396 16.9371 -3.7772 37.9619 -54.6669 -15.6783
lowerback -15.9053 1.22402 -1.85435
upperback -9.16415 1.47442 3.64489
thorax -0.992405 0.767083 5.11013
lowerneck -12.6541 -2.71022 -1.6257
upperneck 25.3847 -6.04611 8.20844
head 10.5371 -2.12623 2.40352
rclavicle 5.6444e-014 2.127e-014
rhumerus -41.0649 -32.6223 -50.8016
rradius 35.8926
rwrist -13.083
rhand 0.0138097 13.5913
rfingers 7.12502
rthumb 25.6036 -14.7076
lclavicle 5.6444e-014 2.127e-014
lhumerus -32.4192 17.138 57.8343
lradius 58.1898
lwrist 6.08953
lhand -7.91353 18.3499
lfingers 7.12502
lthumb 17.992 47.5377
rfemur 161.123 -190.565 -157.212
rtibia 39.6967
rfoot 8.78578 -24.9119
rtoes 13.1138
lfemur -42.7623 -0.859443 -20.9274
ltibia 37.1083
lfoot -76.5332 24.6417
ltoes 40.9073
776
root 1.51264 16.9317 -3.77215 37.8323 -54.3404 -15.3091
lowerback -15.9305 1.03733 -2.11174
upperback -9.14274 1.2636 3.69099
thorax -0.944547 0.671854 5.27724
lowerneck -12.1458 -2.81996 -2.22591
upperneck 24.693 -6.17692 8.91482
head 10.2353 -2.19448 2.73697
rclavicle 6.80977e-014 -2.54444e-014
rhumerus -41.1946 -32.441 -50.7857
rradius 35.8859
rwrist -12.959
rhand -0.565065 13.6159
rfingers 7.12502
rthumb 25.049 -14.7615
lclavicle 6.80977e-014 -2.54444e-014
lhumerus -31.9598 16.795 58.0589
lradius 58.3889
lwrist 6.38963
lhand -8.32075 18.2883
lfingers 7.12502
lthumb 17.6002 47.5117
rfemur 160.914 -190.721 -157.328
rtibia 39.7837
rfoot 8.37066 -24.1029
rtoes 11.4733
lfemur -43.0716 -0.0104046 -21.382
ltibia 37.218
lfoot -75.1562 25.0771
ltoes 40.5534
